<?xml version="1.0" standalone="no"?>
<!DOCTYPE svg PUBLIC "-//W3C//DTD SVG 20010904//EN"
 "http://www.w3.org/TR/2001/REC-SVG-20010904/DTD/svg10.dtd">
<svg version="1.0" xmlns="http://www.w3.org/2000/svg"
 width="16.000000pt" height="16.000000pt" viewBox="0 0 16.000000 16.000000"
 preserveAspectRatio="xMidYMid meet">
<metadata>
Created by potrace 1.11, written by Peter Selinger 2001-2013
</metadata>
<g transform="translate(0.000000,16.000000) scale(0.006154,-0.006154)"
fill="#000000" stroke="none">
<path d="M1850 2483 c-44 -7 -144 -45 -185 -71 -64 -40 -148 -132 -187 -202
-95 -172 -93 -334 7 -545 44 -92 72 -138 232 -387 168 -262 225 -406 225 -562
-1 -172 -77 -315 -208 -392 -174 -102 -405 -73 -544 68 -51 52 -61 66 -100
148 -49 103 -67 281 -39 380 18 67 19 74 6 82 -30 19 -124 -135 -145 -236 -24
-113 9 -268 79 -379 89 -139 212 -226 382 -270 78 -21 251 -16 332 8 198 58
361 190 442 358 49 100 65 173 64 292 -1 79 -3 93 -25 200 -18 86 -118 311
-194 435 -66 109 -125 249 -148 350 -12 57 -15 189 -5 242 26 143 128 267 289
351 51 27 92 53 92 58 0 15 -82 48 -158 64 -63 14 -156 17 -212 8z"/>
<path d="M981 1800 c-55 -21 -115 -78 -145 -138 -24 -47 -25 -48 -74 -49 -113
-5 -232 -82 -298 -194 -45 -76 -89 -209 -80 -243 7 -30 46 -57 125 -86 145
-55 272 -27 365 81 42 49 47 68 11 45 -14 -9 -36 -23 -49 -32 -63 -40 -203
-55 -281 -29 -70 23 -86 44 -72 92 16 55 72 148 116 192 57 58 94 73 191 79
l86 5 18 43 c17 41 94 124 115 124 33 0 43 -113 17 -187 l-15 -42 32 -19 c106
-63 301 -251 391 -376 116 -163 164 -354 113 -451 -34 -66 -101 -105 -178
-105 -45 0 -47 -5 -16 -31 107 -92 250 -60 322 72 82 151 16 364 -191 619 -58
72 -199 213 -284 285 l-55 46 -1 97 c-2 193 -46 248 -163 202z"/>
</g>
</svg>
